<?xml version="1.0" encoding="UTF-8" standalone="no"?>
<!DOCTYPE svg PUBLIC "-//W3C//DTD SVG 1.1//EN" "http://www.w3.org/Graphics/SVG/1.1/DTD/svg11.dtd">
<!-- Generated by graphviz version 2.40.1 (20161225.0304)
 -->
<!-- Title: G Pages: 1 -->
<svg width="305pt" height="1652pt" viewBox="0.00 0.00 305.00 1652.00" xmlns="http://www.w3.org/2000/svg" xmlns:xlink="http://www.w3.org/1999/xlink">
<g id="graph0" class="graph" transform="scale(1 1) rotate(0) translate(4 1648)">
<title>G</title>
<polygon fill="#ffffff" stroke="transparent" points="-4,4 -4,-1648 301,-1648 301,4 -4,4"/>
<!-- day_start -->
<g id="node1" class="node">
<title>day_start</title>
<ellipse fill="#800090" stroke="#000000" cx="180" cy="-1568" rx="72" ry="72"/>
<ellipse fill="none" stroke="#000000" cx="180" cy="-1568" rx="76" ry="76"/>
<text text-anchor="middle" x="180" y="-1560.5" font-family="Times,serif" font-size="25.00" fill="#000000">day_start</text>
</g>
<!-- sleep -->
<g id="node2" class="node">
<title>sleep</title>
<ellipse fill="#031cfc" stroke="#000000" cx="117" cy="-1365" rx="54" ry="54"/>
<text text-anchor="middle" x="117" y="-1358.1" font-family="Times,serif" font-size="23.00" fill="#000000">sleep</text>
</g>
<!-- day_start&#45;&gt;sleep -->
<g id="edge1" class="edge">
<title>day_start-&gt;sleep</title>
<path fill="none" stroke="#000000" d="M157.4335,-1495.2857C149.9181,-1471.0694 141.663,-1444.4698 134.5823,-1421.6542"/>
<polygon fill="#000000" stroke="#000000" points="136.2433,-1421.1019 133.0899,-1416.8453 132.9006,-1422.1393 136.2433,-1421.1019"/>
<polygon fill="#ffffff" stroke="transparent" points="102.9459,-1439.0478 102.9459,-1471.0478 186.9459,-1471.0478 186.9459,-1439.0478 102.9459,-1439.0478"/>
<text text-anchor="start" x="106.6319" y="-1449.0478" font-family="Times,serif" font-size="20.00" fill="#000000">oversleep</text>
</g>
<!-- study_math_analysis -->
<g id="node3" class="node">
<title>study_math_analysis</title>
<ellipse fill="#f52547" stroke="#000000" cx="243" cy="-1365" rx="54" ry="54"/>
<text text-anchor="middle" x="243" y="-1361.1" font-family="Times,serif" font-size="13.00" fill="#000000">study_math_analysis</text>
</g>
<!-- day_start&#45;&gt;study_math_analysis -->
<g id="edge2" class="edge">
<title>day_start-&gt;study_math_analysis</title>
<path fill="none" stroke="#000000" d="M202.5665,-1495.2857C210.0819,-1471.0694 218.337,-1444.4698 225.4177,-1421.6542"/>
<polygon fill="#000000" stroke="#000000" points="227.0994,-1422.1393 226.9101,-1416.8453 223.7567,-1421.1019 227.0994,-1422.1393"/>
</g>
<!-- eat -->
<g id="node7" class="node">
<title>eat</title>
<ellipse fill="#f0d646" stroke="#000000" cx="180" cy="-1184" rx="54" ry="54"/>
<text text-anchor="middle" x="180" y="-1177.1" font-family="Times,serif" font-size="23.00" fill="#000000">eat</text>
</g>
<!-- sleep&#45;&gt;eat -->
<g id="edge3" class="edge">
<title>sleep-&gt;eat</title>
<path fill="none" stroke="#000000" d="M134.8848,-1313.6168C142.8659,-1290.6869 152.291,-1263.6083 160.4572,-1240.1469"/>
<polygon fill="#000000" stroke="#000000" points="162.1887,-1240.4956 162.1796,-1235.1982 158.8832,-1239.345 162.1887,-1240.4956"/>
</g>
<!-- study_math_analysis&#45;&gt;eat -->
<g id="edge4" class="edge">
<title>study_math_analysis-&gt;eat</title>
<path fill="none" stroke="#000000" d="M225.1152,-1313.6168C217.1341,-1290.6869 207.709,-1263.6083 199.5428,-1240.1469"/>
<polygon fill="#000000" stroke="#000000" points="201.1168,-1239.345 197.8204,-1235.1982 197.8113,-1240.4956 201.1168,-1239.345"/>
</g>
<!-- 0 -->
<g id="node4" class="node">
<title>0</title>
<ellipse fill="#f52547" stroke="#000000" cx="117" cy="-1003" rx="54" ry="54"/>
<text text-anchor="middle" x="117" y="-999.1" font-family="Times,serif" font-size="13.00" fill="#000000">study_math_analysis</text>
</g>
<!-- 1 -->
<g id="node8" class="node">
<title>1</title>
<ellipse fill="#f0d646" stroke="#000000" cx="180" cy="-822" rx="54" ry="54"/>
<text text-anchor="middle" x="180" y="-815.1" font-family="Times,serif" font-size="23.00" fill="#000000">eat</text>
</g>
<!-- 0&#45;&gt;1 -->
<g id="edge7" class="edge">
<title>0-&gt;1</title>
<path fill="none" stroke="#000000" d="M134.8848,-951.6168C142.8659,-928.6869 152.291,-901.6083 160.4572,-878.1469"/>
<polygon fill="#000000" stroke="#000000" points="162.1887,-878.4956 162.1796,-873.1982 158.8832,-877.345 162.1887,-878.4956"/>
</g>
<!-- study_discrete_math -->
<g id="node5" class="node">
<title>study_discrete_math</title>
<ellipse fill="#2dad2f" stroke="#000000" cx="243" cy="-1003" rx="54" ry="54"/>
<text text-anchor="middle" x="243" y="-999.1" font-family="Times,serif" font-size="13.00" fill="#000000">study_discrete_math</text>
</g>
<!-- study_discrete_math&#45;&gt;1 -->
<g id="edge8" class="edge">
<title>study_discrete_math-&gt;1</title>
<path fill="none" stroke="#000000" d="M225.1152,-951.6168C217.1341,-928.6869 207.709,-901.6083 199.5428,-878.1469"/>
<polygon fill="#000000" stroke="#000000" points="201.1168,-877.345 197.8204,-873.1982 197.8113,-878.4956 201.1168,-877.345"/>
</g>
<!-- 2 -->
<g id="node6" class="node">
<title>2</title>
<ellipse fill="#2dad2f" stroke="#000000" cx="54" cy="-460" rx="54" ry="54"/>
<text text-anchor="middle" x="54" y="-456.1" font-family="Times,serif" font-size="13.00" fill="#000000">study_discrete_math</text>
</g>
<!-- 3 -->
<g id="node10" class="node">
<title>3</title>
<ellipse fill="#40e0d0" stroke="#000000" cx="117" cy="-279" rx="54" ry="54"/>
<text text-anchor="middle" x="117" y="-272.1" font-family="Times,serif" font-size="23.00" fill="#000000">relax</text>
</g>
<!-- 2&#45;&gt;3 -->
<g id="edge13" class="edge">
<title>2-&gt;3</title>
<path fill="none" stroke="#000000" d="M71.8848,-408.6168C79.8659,-385.6869 89.291,-358.6083 97.4572,-335.1469"/>
<polygon fill="#000000" stroke="#000000" points="99.1887,-335.4956 99.1796,-330.1982 95.8832,-334.345 99.1887,-335.4956"/>
</g>
<!-- eat&#45;&gt;0 -->
<g id="edge5" class="edge">
<title>eat-&gt;0</title>
<path fill="none" stroke="#000000" d="M162.1152,-1132.6168C154.1341,-1109.6869 144.709,-1082.6083 136.5428,-1059.1469"/>
<polygon fill="#000000" stroke="#000000" points="138.1168,-1058.345 134.8204,-1054.1982 134.8113,-1059.4956 138.1168,-1058.345"/>
<polygon fill="#ffffff" stroke="transparent" points="91.2565,-1092.4195 91.2565,-1110.4195 211.2565,-1110.4195 211.2565,-1092.4195 91.2565,-1092.4195"/>
<text text-anchor="start" x="95.0263" y="-1098.3195" font-family="Times,serif" font-size="9.00" fill="#000000">had not done homework earlier</text>
</g>
<!-- eat&#45;&gt;study_discrete_math -->
<g id="edge6" class="edge">
<title>eat-&gt;study_discrete_math</title>
<path fill="none" stroke="#000000" d="M197.8848,-1132.6168C205.8659,-1109.6869 215.291,-1082.6083 223.4572,-1059.1469"/>
<polygon fill="#000000" stroke="#000000" points="225.1887,-1059.4956 225.1796,-1054.1982 221.8832,-1058.345 225.1887,-1059.4956"/>
</g>
<!-- relax -->
<g id="node9" class="node">
<title>relax</title>
<ellipse fill="#40e0d0" stroke="#000000" cx="117" cy="-641" rx="54" ry="54"/>
<text text-anchor="middle" x="117" y="-634.1" font-family="Times,serif" font-size="23.00" fill="#000000">relax</text>
</g>
<!-- 1&#45;&gt;relax -->
<g id="edge9" class="edge">
<title>1-&gt;relax</title>
<path fill="none" stroke="#000000" d="M162.1152,-770.6168C154.1341,-747.6869 144.709,-720.6083 136.5428,-697.1469"/>
<polygon fill="#000000" stroke="#000000" points="138.1168,-696.345 134.8204,-692.1982 134.8113,-697.4956 138.1168,-696.345"/>
</g>
<!-- 4 -->
<g id="node11" class="node">
<title>4</title>
<ellipse fill="#40e0d0" stroke="#000000" cx="243" cy="-641" rx="54" ry="54"/>
<text text-anchor="middle" x="243" y="-634.1" font-family="Times,serif" font-size="23.00" fill="#000000">relax</text>
</g>
<!-- 1&#45;&gt;4 -->
<g id="edge10" class="edge">
<title>1-&gt;4</title>
<path fill="none" stroke="#000000" d="M197.8848,-770.6168C205.8659,-747.6869 215.291,-720.6083 223.4572,-697.1469"/>
<polygon fill="#000000" stroke="#000000" points="225.1887,-697.4956 225.1796,-692.1982 221.8832,-696.345 225.1887,-697.4956"/>
<polygon fill="#ffffff" stroke="transparent" points="159.7435,-724.9195 159.7435,-753.9195 257.7435,-753.9195 257.7435,-724.9195 159.7435,-724.9195"/>
<text text-anchor="start" x="163.5158" y="-733.2195" font-family="Times,serif" font-size="18.00" fill="#000000">become lazy</text>
</g>
<!-- relax&#45;&gt;2 -->
<g id="edge12" class="edge">
<title>relax-&gt;2</title>
<path fill="none" stroke="#000000" d="M99.1152,-589.6168C91.1341,-566.6869 81.709,-539.6083 73.5428,-516.1469"/>
<polygon fill="#000000" stroke="#000000" points="75.1168,-515.345 71.8204,-511.1982 71.8113,-516.4956 75.1168,-515.345"/>
<polygon fill="#ffffff" stroke="transparent" points="31.9693,-532.9752 31.9693,-564.9752 137.9693,-564.9752 137.9693,-532.9752 31.9693,-532.9752"/>
<text text-anchor="start" x="35.8263" y="-542.9752" font-family="Times,serif" font-size="20.00" fill="#000000">rain become</text>
</g>
<!-- walk -->
<g id="node12" class="node">
<title>walk</title>
<ellipse fill="#fa6843" stroke="#000000" cx="180" cy="-460" rx="54" ry="54"/>
<text text-anchor="middle" x="180" y="-453.1" font-family="Times,serif" font-size="23.00" fill="#000000">walk</text>
</g>
<!-- relax&#45;&gt;walk -->
<g id="edge11" class="edge">
<title>relax-&gt;walk</title>
<path fill="none" stroke="#000000" d="M134.8848,-589.6168C142.8659,-566.6869 152.291,-539.6083 160.4572,-516.1469"/>
<polygon fill="#000000" stroke="#000000" points="162.1887,-516.4956 162.1796,-511.1982 158.8832,-515.345 162.1887,-516.4956"/>
</g>
<!-- day_end -->
<g id="node13" class="node">
<title>day_end</title>
<ellipse fill="#52e1fa" stroke="#000000" cx="117" cy="-76" rx="72" ry="72"/>
<ellipse fill="none" stroke="#000000" cx="117" cy="-76" rx="76" ry="76"/>
<text text-anchor="middle" x="117" y="-68.5" font-family="Times,serif" font-size="25.00" fill="#000000">day_end</text>
</g>
<!-- 3&#45;&gt;day_end -->
<g id="edge15" class="edge">
<title>3-&gt;day_end</title>
<path fill="none" stroke="#000000" d="M117,-224.8664C117,-204.1195 117,-179.969 117,-157.2329"/>
<polygon fill="#000000" stroke="#000000" points="118.7501,-157.1006 117,-152.1007 115.2501,-157.1007 118.7501,-157.1006"/>
</g>
<!-- walk&#45;&gt;3 -->
<g id="edge14" class="edge">
<title>walk-&gt;3</title>
<path fill="none" stroke="#000000" d="M162.1152,-408.6168C154.1341,-385.6869 144.709,-358.6083 136.5428,-335.1469"/>
<polygon fill="#000000" stroke="#000000" points="138.1168,-334.345 134.8204,-330.1982 134.8113,-335.4956 138.1168,-334.345"/>
</g>
</g>
</svg>