<?xml version="1.0" encoding="UTF-8" standalone="no"?>
<!DOCTYPE svg PUBLIC "-//W3C//DTD SVG 1.1//EN" "http://www.w3.org/Graphics/SVG/1.1/DTD/svg11.dtd">
<!-- Generated by graphviz version 2.40.1 (20161225.0304)
 -->
<!-- Title: G Pages: 1 -->
<svg width="368pt" height="1652pt" viewBox="0.00 0.00 368.00 1652.00" xmlns="http://www.w3.org/2000/svg" xmlns:xlink="http://www.w3.org/1999/xlink">
<g id="graph0" class="graph" transform="scale(1 1) rotate(0) translate(4 1648)">
<title>G</title>
<polygon fill="#ffffff" stroke="transparent" points="-4,4 -4,-1648 364,-1648 364,4 -4,4"/>
<!-- day_start -->
<g id="node1" class="node">
<title>day_start</title>
<ellipse fill="#800090" stroke="#000000" cx="180" cy="-1568" rx="72" ry="72"/>
<ellipse fill="none" stroke="#000000" cx="180" cy="-1568" rx="76" ry="76"/>
<text text-anchor="middle" x="180" y="-1560.5" font-family="Times,serif" font-size="25.00" fill="#000000">day_start</text>
</g>
<!-- sleep -->
<g id="node2" class="node">
<title>sleep</title>
<ellipse fill="#031cfc" stroke="#000000" cx="117" cy="-1365" rx="54" ry="54"/>
<text text-anchor="middle" x="117" y="-1358.1" font-family="Times,serif" font-size="23.00" fill="#000000">sleep</text>
</g>
<!-- day_start&#45;&gt;sleep -->
<g id="edge1" class="edge">
<title>day_start-&gt;sleep</title>
<path fill="none" stroke="#000000" d="M157.4335,-1495.2857C149.9181,-1471.0694 141.663,-1444.4698 134.5823,-1421.6542"/>
<polygon fill="#000000" stroke="#000000" points="136.2433,-1421.1019 133.0899,-1416.8453 132.9006,-1422.1393 136.2433,-1421.1019"/>
<polygon fill="#ffffff" stroke="transparent" points="102.9459,-1439.0478 102.9459,-1471.0478 186.9459,-1471.0478 186.9459,-1439.0478 102.9459,-1439.0478"/>
<text text-anchor="start" x="106.6319" y="-1449.0478" font-family="Times,serif" font-size="20.00" fill="#000000">oversleep</text>
</g>
<!-- study_math_analysis -->
<g id="node3" class="node">
<title>study_math_analysis</title>
<ellipse fill="#f52547" stroke="#000000" cx="243" cy="-1365" rx="54" ry="54"/>
<text text-anchor="middle" x="243" y="-1361.1" font-family="Times,serif" font-size="13.00" fill="#000000">study_math_analysis</text>
</g>
<!-- day_start&#45;&gt;study_math_analysis -->
<g id="edge2" class="edge">
<title>day_start-&gt;study_math_analysis</title>
<path fill="none" stroke="#000000" d="M202.5665,-1495.2857C210.0819,-1471.0694 218.337,-1444.4698 225.4177,-1421.6542"/>
<polygon fill="#000000" stroke="#000000" points="227.0994,-1422.1393 226.9101,-1416.8453 223.7567,-1421.1019 227.0994,-1422.1393"/>
</g>
<!-- eat -->
<g id="node7" class="node">
<title>eat</title>
<ellipse fill="#f0d646" stroke="#000000" cx="180" cy="-1184" rx="54" ry="54"/>
<text text-anchor="middle" x="180" y="-1177.1" font-family="Times,serif" font-size="23.00" fill="#000000">eat</text>
</g>
<!-- sleep&#45;&gt;eat -->
<g id="edge3" class="edge">
<title>sleep-&gt;eat</title>
<path fill="none" stroke="#000000" d="M134.8848,-1313.6168C142.8659,-1290.6869 152.291,-1263.6083 160.4572,-1240.1469"/>
<polygon fill="#000000" stroke="#000000" points="162.1887,-1240.4956 162.1796,-1235.1982 158.8832,-1239.345 162.1887,-1240.4956"/>
</g>
<!-- study_math_analysis&#45;&gt;eat -->
<g id="edge4" class="edge">
<title>study_math_analysis-&gt;eat</title>
<path fill="none" stroke="#000000" d="M225.1152,-1313.6168C217.1341,-1290.6869 207.709,-1263.6083 199.5428,-1240.1469"/>
<polygon fill="#000000" stroke="#000000" points="201.1168,-1239.345 197.8204,-1235.1982 197.8113,-1240.4956 201.1168,-1239.345"/>
</g>
<!-- 0 -->
<g id="node4" class="node">
<title>0</title>
<ellipse fill="#f52547" stroke="#000000" cx="54" cy="-1003" rx="54" ry="54"/>
<text text-anchor="middle" x="54" y="-999.1" font-family="Times,serif" font-size="13.00" fill="#000000">study_math_analysis</text>
</g>
<!-- 1 -->
<g id="node8" class="node">
<title>1</title>
<ellipse fill="#f0d646" stroke="#000000" cx="180" cy="-822" rx="54" ry="54"/>
<text text-anchor="middle" x="180" y="-815.1" font-family="Times,serif" font-size="23.00" fill="#000000">eat</text>
</g>
<!-- 0&#45;&gt;1 -->
<g id="edge7" class="edge">
<title>0-&gt;1</title>
<path fill="none" stroke="#000000" d="M85.1461,-958.2584C103.6157,-931.7266 127.0422,-898.0744 145.9926,-870.852"/>
<polygon fill="#000000" stroke="#000000" points="147.5737,-871.6437 148.9941,-866.5402 144.7011,-869.644 147.5737,-871.6437"/>
</g>
<!-- study_discrete_math -->
<g id="node5" class="node">
<title>study_discrete_math</title>
<ellipse fill="#2dad2f" stroke="#000000" cx="180" cy="-1003" rx="54" ry="54"/>
<text text-anchor="middle" x="180" y="-999.1" font-family="Times,serif" font-size="13.00" fill="#000000">study_discrete_math</text>
</g>
<!-- study_discrete_math&#45;&gt;1 -->
<g id="edge8" class="edge">
<title>study_discrete_math-&gt;1</title>
<path fill="none" stroke="#000000" d="M180,-948.694C180,-927.4856 180,-903.1022 180,-881.4257"/>
<polygon fill="#000000" stroke="#000000" points="181.7501,-881.2676 180,-876.2676 178.2501,-881.2677 181.7501,-881.2676"/>
</g>
<!-- 2 -->
<g id="node6" class="node">
<title>2</title>
<ellipse fill="#2dad2f" stroke="#000000" cx="117" cy="-460" rx="54" ry="54"/>
<text text-anchor="middle" x="117" y="-456.1" font-family="Times,serif" font-size="13.00" fill="#000000">study_discrete_math</text>
</g>
<!-- 3 -->
<g id="node10" class="node">
<title>3</title>
<ellipse fill="#40e0d0" stroke="#000000" cx="180" cy="-279" rx="54" ry="54"/>
<text text-anchor="middle" x="180" y="-272.1" font-family="Times,serif" font-size="23.00" fill="#000000">relax</text>
</g>
<!-- 2&#45;&gt;3 -->
<g id="edge14" class="edge">
<title>2-&gt;3</title>
<path fill="none" stroke="#000000" d="M134.8848,-408.6168C142.8659,-385.6869 152.291,-358.6083 160.4572,-335.1469"/>
<polygon fill="#000000" stroke="#000000" points="162.1887,-335.4956 162.1796,-330.1982 158.8832,-334.345 162.1887,-335.4956"/>
</g>
<!-- eat&#45;&gt;0 -->
<g id="edge5" class="edge">
<title>eat-&gt;0</title>
<path fill="none" stroke="#000000" d="M148.8539,-1139.2584C130.3843,-1112.7266 106.9578,-1079.0744 88.0074,-1051.852"/>
<polygon fill="#000000" stroke="#000000" points="89.2989,-1050.644 85.0059,-1047.5402 86.4263,-1052.6437 89.2989,-1050.644"/>
<polygon fill="#ffffff" stroke="transparent" points="53.5724,-1079.5762 53.5724,-1097.5762 173.5724,-1097.5762 173.5724,-1079.5762 53.5724,-1079.5762"/>
<text text-anchor="start" x="57.3422" y="-1085.4762" font-family="Times,serif" font-size="9.00" fill="#000000">had not done homework earlier</text>
</g>
<!-- eat&#45;&gt;study_discrete_math -->
<g id="edge6" class="edge">
<title>eat-&gt;study_discrete_math</title>
<path fill="none" stroke="#000000" d="M180,-1129.694C180,-1108.4856 180,-1084.1022 180,-1062.4257"/>
<polygon fill="#000000" stroke="#000000" points="181.7501,-1062.2676 180,-1057.2676 178.2501,-1062.2677 181.7501,-1062.2676"/>
</g>
<!-- 4 -->
<g id="node11" class="node">
<title>4</title>
<ellipse fill="#40e0d0" stroke="#000000" cx="306" cy="-1003" rx="54" ry="54"/>
<text text-anchor="middle" x="306" y="-996.1" font-family="Times,serif" font-size="23.00" fill="#000000">relax</text>
</g>
<!-- eat&#45;&gt;4 -->
<g id="edge10" class="edge">
<title>eat-&gt;4</title>
<path fill="none" stroke="#000000" d="M211.1461,-1139.2584C229.6157,-1112.7266 253.0422,-1079.0744 271.9926,-1051.852"/>
<polygon fill="#000000" stroke="#000000" points="273.5737,-1052.6437 274.9941,-1047.5402 270.7011,-1050.644 273.5737,-1052.6437"/>
<polygon fill="#ffffff" stroke="transparent" points="197.4276,-1074.0762 197.4276,-1103.0762 295.4276,-1103.0762 295.4276,-1074.0762 197.4276,-1074.0762"/>
<text text-anchor="start" x="201.1999" y="-1082.3762" font-family="Times,serif" font-size="18.00" fill="#000000">become lazy</text>
</g>
<!-- relax -->
<g id="node9" class="node">
<title>relax</title>
<ellipse fill="#40e0d0" stroke="#000000" cx="180" cy="-641" rx="54" ry="54"/>
<text text-anchor="middle" x="180" y="-634.1" font-family="Times,serif" font-size="23.00" fill="#000000">relax</text>
</g>
<!-- 1&#45;&gt;relax -->
<g id="edge9" class="edge">
<title>1-&gt;relax</title>
<path fill="none" stroke="#000000" d="M180,-767.694C180,-746.4856 180,-722.1022 180,-700.4257"/>
<polygon fill="#000000" stroke="#000000" points="181.7501,-700.2676 180,-695.2676 178.2501,-700.2677 181.7501,-700.2676"/>
</g>
<!-- relax&#45;&gt;2 -->
<g id="edge13" class="edge">
<title>relax-&gt;2</title>
<path fill="none" stroke="#000000" d="M162.1152,-589.6168C154.1341,-566.6869 144.709,-539.6083 136.5428,-516.1469"/>
<polygon fill="#000000" stroke="#000000" points="138.1168,-515.345 134.8204,-511.1982 134.8113,-516.4956 138.1168,-515.345"/>
<polygon fill="#ffffff" stroke="transparent" points="94.9693,-532.9752 94.9693,-564.9752 200.9693,-564.9752 200.9693,-532.9752 94.9693,-532.9752"/>
<text text-anchor="start" x="98.8263" y="-542.9752" font-family="Times,serif" font-size="20.00" fill="#000000">rain become</text>
</g>
<!-- walk -->
<g id="node12" class="node">
<title>walk</title>
<ellipse fill="#fa6843" stroke="#000000" cx="243" cy="-460" rx="54" ry="54"/>
<text text-anchor="middle" x="243" y="-453.1" font-family="Times,serif" font-size="23.00" fill="#000000">walk</text>
</g>
<!-- relax&#45;&gt;walk -->
<g id="edge12" class="edge">
<title>relax-&gt;walk</title>
<path fill="none" stroke="#000000" d="M197.8848,-589.6168C205.8659,-566.6869 215.291,-539.6083 223.4572,-516.1469"/>
<polygon fill="#000000" stroke="#000000" points="225.1887,-516.4956 225.1796,-511.1982 221.8832,-515.345 225.1887,-516.4956"/>
</g>
<!-- day_end -->
<g id="node13" class="node">
<title>day_end</title>
<ellipse fill="#52e1fa" stroke="#000000" cx="180" cy="-76" rx="72" ry="72"/>
<ellipse fill="none" stroke="#000000" cx="180" cy="-76" rx="76" ry="76"/>
<text text-anchor="middle" x="180" y="-68.5" font-family="Times,serif" font-size="25.00" fill="#000000">day_end</text>
</g>
<!-- 3&#45;&gt;day_end -->
<g id="edge16" class="edge">
<title>3-&gt;day_end</title>
<path fill="none" stroke="#000000" d="M180,-224.8664C180,-204.1195 180,-179.969 180,-157.2329"/>
<polygon fill="#000000" stroke="#000000" points="181.7501,-157.1006 180,-152.1007 178.2501,-157.1007 181.7501,-157.1006"/>
</g>
<!-- 4&#45;&gt;1 -->
<g id="edge11" class="edge">
<title>4-&gt;1</title>
<path fill="none" stroke="#000000" d="M274.8539,-958.2584C256.3843,-931.7266 232.9578,-898.0744 214.0074,-870.852"/>
<polygon fill="#000000" stroke="#000000" points="215.2989,-869.644 211.0059,-866.5402 212.4263,-871.6437 215.2989,-869.644"/>
</g>
<!-- walk&#45;&gt;3 -->
<g id="edge15" class="edge">
<title>walk-&gt;3</title>
<path fill="none" stroke="#000000" d="M225.1152,-408.6168C217.1341,-385.6869 207.709,-358.6083 199.5428,-335.1469"/>
<polygon fill="#000000" stroke="#000000" points="201.1168,-334.345 197.8204,-330.1982 197.8113,-335.4956 201.1168,-334.345"/>
</g>
</g>
</svg>